<svg width="480" height="600" viewBox="0 0 480 600" xmlns="http://www.w3.org/2000/svg">
  <defs>
    <linearGradient id="bg" x1="0" y1="0" x2="1" y2="1">
      <stop offset="0%" stop-color="#64748b"/>
      <stop offset="100%" stop-color="#334155"/>
    </linearGradient>
    <linearGradient id="pack" x1="0" y1="0" x2="0" y2="1">
      <stop offset="0%" stop-color="#94a3b8"/>
      <stop offset="100%" stop-color="#475569"/>
    </linearGradient>
  </defs>
  <rect width="480" height="600" fill="url(#bg)"/>
  <rect x="150" y="190" width="180" height="260" rx="16" fill="url(#pack)" stroke="rgba(255,255,255,0.55)" stroke-width="4"/>
  <path d="M150 226 L240 176 L330 226 L330 250 L150 250 Z" fill="rgba(255,255,255,0.12)"/>
  <line x1="150" y1="250" x2="330" y2="250" stroke="rgba(255,255,255,0.35)" stroke-width="2"/>
  <circle cx="240" cy="345" r="42" fill="rgba(15,23,42,0.25)" stroke="rgba(255,255,255,0.55)" stroke-width="3"/>
  <g transform="translate(240 345)">
    <circle r="26" fill="rgba(255,255,255,0.9)"/>
    <polygon points="0,-13 12,-4 7,11 -7,11 -12,-4" fill="#475569"/>
    <path d="M0,-26 L0,-13 M12,-4 L23,-9 M7,11 L14,22 M-7,11 L-14,22 M-12,-4 L-23,-9" stroke="#475569" stroke-width="3" stroke-linecap="round"/>
  </g>
  <text x="240" y="500" text-anchor="middle" font-family="sans-serif" font-size="22" font-weight="700" fill="rgba(255,255,255,0.55)" letter-spacing="2">ОБЫЧНЫЙ ПАК</text>
</svg>
