<svg width="480" height="600" viewBox="0 0 480 600" xmlns="http://www.w3.org/2000/svg">
  <defs>
    <linearGradient id="bg" x1="0" y1="0" x2="1" y2="1">
      <stop offset="0%" stop-color="#a855f7"/>
      <stop offset="100%" stop-color="#86198f"/>
    </linearGradient>
    <linearGradient id="pack" x1="0" y1="0" x2="0" y2="1">
      <stop offset="0%" stop-color="#c084fc"/>
      <stop offset="100%" stop-color="#c026d3"/>
    </linearGradient>
    <radialGradient id="glow" cx="50%" cy="38%" r="60%">
      <stop offset="0%" stop-color="#ffffff" stop-opacity="0.4"/>
      <stop offset="100%" stop-color="#ffffff" stop-opacity="0"/>
    </radialGradient>
  </defs>
  <rect width="480" height="600" fill="url(#bg)"/>
  <circle cx="240" cy="300" r="240" fill="url(#glow)"/>
  <g fill="#ffffff" opacity="0.9">
    <polygon points="80,130 87,146 104,148 91,159 95,176 80,167 65,176 69,159 56,148 73,146"/>
    <polygon points="400,160 405,172 418,173 408,181 411,193 400,187 389,193 392,181 382,173 395,172"/>
    <polygon points="70,420 75,430 86,431 78,438 81,449 70,443 59,449 62,438 54,431 65,430"/>
    <polygon points="410,400 414,409 424,410 417,416 419,426 410,421 401,426 403,416 396,410 406,409"/>
  </g>
  <rect x="148" y="186" width="184" height="266" rx="18" fill="url(#pack)" stroke="rgba(255,255,255,0.75)" stroke-width="4"/>
  <path d="M148 224 L240 172 L332 224 L332 250 L148 250 Z" fill="rgba(255,255,255,0.2)"/>
  <line x1="148" y1="250" x2="332" y2="250" stroke="rgba(255,255,255,0.5)" stroke-width="2"/>
  <circle cx="240" cy="348" r="48" fill="rgba(30,8,40,0.35)" stroke="#ffffff" stroke-width="3"/>
  <g transform="translate(240 348)">
    <circle r="29" fill="rgba(255,255,255,0.97)"/>
    <polygon points="0,-14 13,-4 8,12 -8,12 -13,-4" fill="#86198f"/>
    <path d="M0,-29 L0,-14 M13,-4 L26,-10 M8,12 L15,25 M-8,12 L-15,25 M-13,-4 L-26,-10" stroke="#86198f" stroke-width="3" stroke-linecap="round"/>
  </g>
  <polygon points="240,108 250,132 276,132 256,148 264,172 240,158 216,172 224,148 204,132 230,132" fill="#ffffff"/>
  <text x="240" y="504" text-anchor="middle" font-family="sans-serif" font-size="22" font-weight="700" fill="rgba(255,255,255,0.95)" letter-spacing="2">ЭПИЧЕСКИЙ ПАК</text>
</svg>
